<svg width="24" height="24" viewBox="0 0 24 24" fill="none" xmlns="http://www.w3.org/2000/svg">
<path d="M19.1471 18.3526C19.2024 18.4041 19.2467 18.4662 19.2775 18.5352C19.3082 18.6042 19.3248 18.6787 19.3261 18.7542C19.3274 18.8298 19.3135 18.9048 19.2852 18.9748C19.2569 19.0449 19.2148 19.1085 19.1614 19.1619C19.108 19.2153 19.0444 19.2574 18.9743 19.2857C18.9043 19.314 18.8293 19.3279 18.7537 19.3266C18.6782 19.3252 18.6037 19.3087 18.5347 19.278C18.4657 19.2472 18.4036 19.2029 18.3521 19.1476L11.9996 12.7961L5.64714 19.1476C5.54051 19.247 5.39947 19.3011 5.25375 19.2985C5.10802 19.2959 4.96898 19.2369 4.86592 19.1338C4.76286 19.0308 4.70383 18.8917 4.70126 18.746C4.69869 18.6003 4.75278 18.4593 4.85214 18.3526L11.2037 12.0001L4.85214 5.64763C4.75278 5.541 4.69869 5.39996 4.70126 5.25424C4.70383 5.10851 4.76286 4.96947 4.86592 4.86641C4.96898 4.76335 5.10802 4.70432 5.25375 4.70175C5.39947 4.69918 5.54051 4.75327 5.64714 4.85263L11.9996 11.2042L18.3521 4.85263C18.4588 4.75327 18.5998 4.69918 18.7455 4.70175C18.8913 4.70432 19.0303 4.76335 19.1334 4.86641C19.2364 4.96947 19.2955 5.10851 19.298 5.25424C19.3006 5.39996 19.2465 5.541 19.1471 5.64763L12.7956 12.0001L19.1471 18.3526Z" fill="#3F3B39"/>
</svg>
